<mxfile host="app.diagrams.net" modified="2022-12-09T13:33:23.684Z" agent="5.0 (Windows NT 10.0; Win64; x64) AppleWebKit/537.36 (KHTML, like Gecko) Chrome/108.0.0.0 Safari/537.36" etag="hO0s_BtKt7R2oSCohwnv" version="20.6.2" type="github">
  <diagram name="Page-1" id="5f0bae14-7c28-e335-631c-24af17079c00">
    <mxGraphModel dx="1580" dy="896" grid="1" gridSize="10" guides="1" tooltips="1" connect="1" arrows="1" fold="1" page="1" pageScale="1" pageWidth="1100" pageHeight="850" background="none" math="0" shadow="0">
      <root>
        <mxCell id="0" />
        <mxCell id="1" parent="0" />
        <mxCell id="39150e848f15840c-2" value="" style="verticalAlign=top;align=left;spacingTop=8;spacingLeft=2;spacingRight=12;shape=cube;size=10;direction=south;fontStyle=4;html=1;rounded=0;shadow=0;comic=0;labelBackgroundColor=none;strokeWidth=1;fontFamily=Verdana;fontSize=12" parent="1" vertex="1">
          <mxGeometry x="395" y="170" width="210" height="172.5" as="geometry" />
        </mxCell>
        <mxCell id="39150e848f15840c-3" value="" style="verticalAlign=top;align=left;spacingTop=8;spacingLeft=2;spacingRight=12;shape=cube;size=10;direction=south;fontStyle=4;html=1;rounded=0;shadow=0;comic=0;labelBackgroundColor=none;strokeWidth=1;fontFamily=Verdana;fontSize=12" parent="1" vertex="1">
          <mxGeometry x="370" y="455" width="260" height="150" as="geometry" />
        </mxCell>
        <mxCell id="B5vKXTVFSyYjJMw2mmiO-1" value="Hector Bridge Splitter&amp;nbsp;Contract" style="text;html=1;strokeColor=none;fillColor=none;align=center;verticalAlign=middle;whiteSpace=wrap;rounded=0;" vertex="1" parent="1">
          <mxGeometry x="446" y="500" width="100" height="60" as="geometry" />
        </mxCell>
        <mxCell id="B5vKXTVFSyYjJMw2mmiO-2" value="Actor" style="shape=umlActor;verticalLabelPosition=bottom;verticalAlign=top;html=1;outlineConnect=0;" vertex="1" parent="1">
          <mxGeometry x="481" y="700" width="30" height="60" as="geometry" />
        </mxCell>
        <mxCell id="B5vKXTVFSyYjJMw2mmiO-3" value="" style="endArrow=classic;html=1;rounded=0;entryX=0;entryY=0;entryDx=150;entryDy=135;entryPerimeter=0;" edge="1" parent="1" target="39150e848f15840c-3">
          <mxGeometry width="50" height="50" relative="1" as="geometry">
            <mxPoint x="495" y="690" as="sourcePoint" />
            <mxPoint x="570" y="580" as="targetPoint" />
          </mxGeometry>
        </mxCell>
        <mxCell id="B5vKXTVFSyYjJMw2mmiO-10" value="Wallet 1 - 25% destination&lt;br&gt;Wallet 2 - 75% destination" style="text;html=1;strokeColor=none;fillColor=none;align=center;verticalAlign=middle;whiteSpace=wrap;rounded=0;" vertex="1" parent="1">
          <mxGeometry x="500" y="610" width="160" height="90" as="geometry" />
        </mxCell>
        <mxCell id="B5vKXTVFSyYjJMw2mmiO-13" value="LI.FI Bridge Contract" style="text;html=1;strokeColor=none;fillColor=none;align=center;verticalAlign=middle;whiteSpace=wrap;rounded=0;" vertex="1" parent="1">
          <mxGeometry x="433.5" y="221.25" width="125" height="70" as="geometry" />
        </mxCell>
        <mxCell id="B5vKXTVFSyYjJMw2mmiO-17" value="" style="endArrow=classic;html=1;rounded=0;exitX=0.033;exitY=0.692;exitDx=0;exitDy=0;exitPerimeter=0;entryX=0.997;entryY=0.739;entryDx=0;entryDy=0;entryPerimeter=0;" edge="1" parent="1" source="39150e848f15840c-3" target="39150e848f15840c-2">
          <mxGeometry width="50" height="50" relative="1" as="geometry">
            <mxPoint x="450" y="450" as="sourcePoint" />
            <mxPoint x="450" y="350" as="targetPoint" />
          </mxGeometry>
        </mxCell>
        <mxCell id="B5vKXTVFSyYjJMw2mmiO-18" value="" style="endArrow=classic;html=1;rounded=0;exitX=0.033;exitY=0.308;exitDx=0;exitDy=0;exitPerimeter=0;entryX=0.997;entryY=0.176;entryDx=0;entryDy=0;entryPerimeter=0;" edge="1" parent="1" target="39150e848f15840c-2">
          <mxGeometry width="50" height="50" relative="1" as="geometry">
            <mxPoint x="566.9200000000001" y="457.94999999999993" as="sourcePoint" />
            <mxPoint x="537.7741695587506" y="342.5" as="targetPoint" />
          </mxGeometry>
        </mxCell>
        <mxCell id="B5vKXTVFSyYjJMw2mmiO-20" value="#1 Swap exec&lt;br&gt;25% destination to wallet 1" style="text;html=1;strokeColor=none;fillColor=none;align=center;verticalAlign=middle;whiteSpace=wrap;rounded=0;" vertex="1" parent="1">
          <mxGeometry x="346" y="355" width="100" height="100" as="geometry" />
        </mxCell>
        <mxCell id="B5vKXTVFSyYjJMw2mmiO-21" value="#2 Swap exec&lt;br&gt;75% destination to wallet 2" style="text;html=1;strokeColor=none;fillColor=none;align=center;verticalAlign=middle;whiteSpace=wrap;rounded=0;" vertex="1" parent="1">
          <mxGeometry x="580" y="350" width="100" height="100" as="geometry" />
        </mxCell>
        <mxCell id="B5vKXTVFSyYjJMw2mmiO-23" value="&lt;br&gt;Wallet1" style="shape=actor;whiteSpace=wrap;html=1;" vertex="1" parent="1">
          <mxGeometry x="230" y="30" width="70" height="80" as="geometry" />
        </mxCell>
        <mxCell id="B5vKXTVFSyYjJMw2mmiO-24" value="&lt;br&gt;Wallet2" style="shape=actor;whiteSpace=wrap;html=1;" vertex="1" parent="1">
          <mxGeometry x="740" y="20" width="70" height="80" as="geometry" />
        </mxCell>
        <mxCell id="B5vKXTVFSyYjJMw2mmiO-25" value="" style="endArrow=classic;html=1;rounded=0;entryX=0.5;entryY=1;entryDx=0;entryDy=0;exitX=0;exitY=0;exitDx=91.25;exitDy=210;exitPerimeter=0;" edge="1" parent="1" source="39150e848f15840c-2" target="B5vKXTVFSyYjJMw2mmiO-23">
          <mxGeometry width="50" height="50" relative="1" as="geometry">
            <mxPoint x="480" y="450" as="sourcePoint" />
            <mxPoint x="530" y="400" as="targetPoint" />
          </mxGeometry>
        </mxCell>
        <mxCell id="B5vKXTVFSyYjJMw2mmiO-26" value="" style="endArrow=classic;html=1;rounded=0;entryX=0.5;entryY=1;entryDx=0;entryDy=0;exitX=0;exitY=0;exitDx=81.25;exitDy=0;exitPerimeter=0;" edge="1" parent="1" source="39150e848f15840c-2" target="B5vKXTVFSyYjJMw2mmiO-24">
          <mxGeometry width="50" height="50" relative="1" as="geometry">
            <mxPoint x="480" y="450" as="sourcePoint" />
            <mxPoint x="530" y="400" as="targetPoint" />
          </mxGeometry>
        </mxCell>
        <mxCell id="B5vKXTVFSyYjJMw2mmiO-27" value="&lt;font color=&quot;#ff0000&quot;&gt;Approve and transfer input token to Hector Bridge Splitter contract&lt;/font&gt;" style="text;html=1;strokeColor=none;fillColor=none;align=center;verticalAlign=middle;whiteSpace=wrap;rounded=0;" vertex="1" parent="1">
          <mxGeometry x="330" y="610" width="160" height="90" as="geometry" />
        </mxCell>
      </root>
    </mxGraphModel>
  </diagram>
</mxfile>
